<svg xmlns="http://www.w3.org/2000/svg" viewBox="0 0 24 24" fill="currentColor">
  <path d="M22.282 9.821a5.985 5.985 0 0 0-.516-4.91 6.046 6.046 0 0 0-6.51-2.9A6.065 6.065 0 0 0 4.981 4.18a5.985 5.985 0 0 0-3.998 2.9 6.046 6.046 0 0 0 .743 7.097 5.98 5.98 0 0 0 .51 4.911 6.078 6.078 0 0 0 6.283 2.9 5.952 5.952 0 0 0 4.97.216 6.078 6.078 0 0 0 4.32-2.946 5.979 5.979 0 0 0 3.657-2.897 5.988 5.988 0 0 0 .743-7.097l-.027-.042zM10.854 4.854a4.595 4.595 0 0 1 3.053-.725 4.616 4.616 0 0 1 .476 1.06l-.739.127a3.573 3.573 0 0 0-.31-.81 3.714 3.714 0 0 0-2.474.348l-.006.006zm8.66 9.654a4.671 4.671 0 0 1-2.514 1.357 4.628 4.628 0 0 1-1.06-.476l.127-.738a3.573 3.573 0 0 0 .81.31 3.714 3.714 0 0 0-.348-2.474l-.006-.006zm-2.854-1.854a3.003 3.003 0 1 1-6.006 0 3.003 3.003 0 0 1 6.006 0z"/>
</svg>